<?xml version="1.0" encoding="iso-8859-1"?>
<!-- Generator: Adobe Illustrator 19.0.0, SVG Export Plug-In . SVG Version: 6.00 Build 0)  -->
<svg version="1.1" id="Layer_1" xmlns="http://www.w3.org/2000/svg" xmlns:xlink="http://www.w3.org/1999/xlink" x="0px" y="0px"
	 viewBox="0 0 512 512" style="enable-background:new 0 0 512 512;" xml:space="preserve">
<g transform="translate(0 -1)">
	<g>
		<g>
			<path d="M238.362,224.137c9.353,7.74,20.779,11.204,32.29,9.89c11.529-1.314,22.178-7.219,29.978-16.623l6.528-6.536
				c-0.674-0.7-1.382-1.391-2.005-2.116c-5.094-5.956-10.214-11.332-15.275-16.256l-27.844,27.827c-1.664,1.664-3.849,2.5-6.033,2.5
				c-2.185,0-4.369-0.836-6.042-2.5c-3.328-3.337-3.328-8.738,0.008-12.075l27.196-27.179c-5.282-4.403-10.419-8.294-15.351-11.708
				l-25.378,25.37c-1.664,1.673-3.849,2.5-6.033,2.5c-2.185,0-4.369-0.828-6.033-2.5c-3.337-3.328-3.337-8.738,0-12.066
				l22.647-22.639c-17.988-10.206-30.66-13.508-31.642-13.747c-2.893-0.717-5.956,0.145-8.073,2.253l-16.99,16.99
				c-3.891,3.789-7.765,7.262-11.614,10.615l6.17,6.178L238.362,224.137z"/>
			<path d="M511.718,288.831c-3.917-19.465-27.793-30.037-30.541-31.198c-1.007-0.418-2.082-0.648-3.174-0.666
				c-0.64-0.009-31.582-0.631-67.857-6.306c-20.42,24.713-44.322,52.745-54.784,63.215c-0.7,0.7-1.485,1.425-2.193,2.133
				c-8.243,0.435-16.785,0.742-25.771,0.853c5.914-5.376,11.127-10.283,15.898-15.053c8.96-8.96,28.937-32.265,47.522-54.596
				c-25.719-5.222-51.874-13.235-70.451-25.463l-7.134,7.134c-10.095,12.228-24.721,20.284-40.653,22.101
				c-2.261,0.256-4.523,0.384-6.767,0.384c-4.685,0-9.276-0.751-13.773-1.843c-17.792,19.994-32.734,40.226-43.836,59.332
				c-5.939-0.819-11.964-1.698-18.099-2.662c11.179-20.378,26.581-42.052,45.167-63.471c-2.628-1.587-5.197-3.294-7.612-5.299
				l-53.717-41.984c-0.273-0.222-0.529-0.452-0.777-0.691l-7.808-7.817c-26.786,20.019-52.454,29.21-76.561,27.238
				c-35.721-2.978-56.098-30.225-56.286-30.481c-1.647-2.278-4.292-3.661-7.125-3.524c-2.807,0.068-5.41,1.519-6.938,3.883
				c-26.163,40.252-18.372,86.784-12.8,107.631C2.372,292.876,0,295.94,0,299.635v42.667c0,4.71,3.823,8.533,8.533,8.533H128
				c2.261,0,4.437-0.905,6.033-2.5l5.018-5.026c22.502,6.067,98.483,24.67,183.194,24.661c63.266,0,131.413-10.385,185.728-44.117
				c2.5-1.562,4.028-4.301,4.028-7.253v-25.6C512,290.265,511.906,289.531,511.718,288.831z M494.933,311.795
				c-127.275,75.23-332.535,20.42-356.275,13.705c-0.7-0.179-1.417-0.265-2.125-0.265c-2.236,0-4.412,0.879-6.033,2.5l-6.033,6.033
				H17.067v-25.609l74.061-0.094c12.151,0,23.91,1.212,34.961,3.593c6.059,1.306,12.015,2.534,17.903,3.703
				c49.63,9.89,93.67,15.275,132.489,17.562c0.41,0.026,0.819,0.043,1.229,0.068c4.292,0.247,8.525,0.461,12.698,0.631
				c1.391,0.06,2.773,0.111,4.156,0.162c3.2,0.111,6.366,0.213,9.481,0.282c2.091,0.051,4.147,0.085,6.195,0.119
				c2.509,0.034,4.992,0.06,7.45,0.077c1.015,0,2.074,0.026,3.072,0.026c0.768,0,1.468-0.034,2.227-0.034
				c6.537-0.017,12.937-0.111,19.106-0.307c0.529-0.017,1.024-0.043,1.553-0.06c5.871-0.196,11.546-0.486,17.084-0.828
				c1.067-0.06,2.159-0.119,3.217-0.196c5.658-0.375,11.145-0.828,16.452-1.331c1.041-0.102,2.057-0.213,3.089-0.316
				c5.248-0.529,10.368-1.109,15.275-1.749c0.145-0.017,0.307-0.034,0.452-0.051c5.043-0.666,9.839-1.391,14.515-2.15
				c0.913-0.154,1.826-0.299,2.731-0.452c4.471-0.751,8.789-1.536,12.919-2.355c0.666-0.128,1.289-0.265,1.937-0.401
				c3.849-0.776,7.552-1.579,11.102-2.406c0.469-0.111,0.973-0.213,1.442-0.324c3.746-0.887,7.287-1.792,10.692-2.697
				c0.708-0.196,1.399-0.384,2.091-0.572c3.328-0.913,6.528-1.826,9.523-2.739c0.265-0.085,0.503-0.162,0.777-0.247
				c2.825-0.87,5.478-1.732,8.004-2.594c0.495-0.162,0.998-0.333,1.476-0.495c2.551-0.879,4.932-1.741,7.168-2.586
				c0.469-0.179,0.904-0.35,1.365-0.521c2.125-0.819,4.147-1.621,5.973-2.381c0.085-0.034,0.179-0.068,0.256-0.102
				c1.331-0.555,2.577-1.092,3.746-1.604V311.795z"/>
		</g>
	</g>
</g>
<g>
</g>
<g>
</g>
<g>
</g>
<g>
</g>
<g>
</g>
<g>
</g>
<g>
</g>
<g>
</g>
<g>
</g>
<g>
</g>
<g>
</g>
<g>
</g>
<g>
</g>
<g>
</g>
<g>
</g>
</svg>
