<svg height="440pt" viewBox="-58 0 440 440" width="440pt" xmlns="http://www.w3.org/2000/svg"><path d="m156.789062 399.570312c-28.769531.066407-57.117187-6.921874-82.5625-20.351562v40.78125c.011719 11.039062 8.960938 19.988281 20 20h134.933594c11.039063-.011719 19.984375-8.960938 20-20v-40.800781c-25.445312 13.4375-53.792968 20.429687-82.5625 20.367187zm0 0"/><path d="m165.214844 113h-7.046875c-39.300781-.117188-75.667969 20.78125-95.355469 54.796875-19.683594 34.015625-19.683594 75.960937 0 109.976563 19.6875 34.015624 56.054688 54.914062 95.355469 54.796874h7.046875c39.300781.117188 75.664062-20.78125 95.351562-54.796874 19.683594-34.015626 19.683594-75.960938 0-109.976563-19.6875-34.015625-56.050781-54.914063-95.351562-54.796875zm44.386718 125.355469h-50.699218c-5.523438 0-10-4.480469-10-10v-67.976563c0-5.523437 4.476562-10 10-10 5.523437 0 10 4.476563 10 10v57.976563h40.699218c5.523438 0 10 4.476562 10 10 0 5.523437-4.476562 10-10 10zm0 0"/><path d="m166.589844 46c28.769531-.066406 57.117187 6.921875 82.5625 20.351562v-46.351562c-.011719-11.039062-8.957032-19.9882812-20-20h-134.929688c-11.042968.0117188-19.988281 8.960938-20 20v46.367188c25.441406-13.4375 53.792969-20.429688 82.566406-20.367188zm0 0"/><path d="m166.589844 66h-9.8125c-86.445313 0-156.777344 70.335938-156.777344 156.785156 0 86.449219 70.332031 156.785156 156.789062 156.785156h9.8125c86.453126 0 156.785157-70.335937 156.785157-156.785156 0-86.449218-70.339844-156.785156-156.796875-156.785156zm-1.382813 286.570312h-7.046875c-46.453125.128907-89.429687-24.582031-112.695312-64.789062s-23.265625-89.785156 0-129.992188c23.265625-40.210937 66.242187-64.917968 112.695312-64.789062h7.046875c46.453125-.128906 89.433594 24.578125 112.699219 64.789062 23.261719 40.207032 23.261719 89.785157 0 129.992188-23.265625 40.207031-66.246094 64.917969-112.699219 64.789062zm0 0"/></svg>