<svg width="540" height="720" viewBox="0 0 540 720" fill="none" xmlns="http://www.w3.org/2000/svg">
<rect width="540" height="720" fill="#F7F7F7"/>
<rect x="34.5" y="34.5" width="471" height="651" rx="13.5" stroke="#818181" stroke-width="5" stroke-linejoin="round" stroke-dasharray="16 16"/>
<g clip-path="url(#clip0)">
<path d="M259.941 341.258C265.275 345.672 271.791 347.648 278.356 346.898C284.931 346.149 291.005 342.781 295.453 337.418L299.176 333.69C298.792 333.291 298.388 332.897 298.033 332.484C295.127 329.087 292.207 326.021 289.321 323.213L273.441 339.083C272.492 340.032 271.246 340.508 270.001 340.508C268.754 340.508 267.509 340.032 266.555 339.083C264.657 337.18 264.657 334.099 266.559 332.196L282.07 316.696C279.057 314.185 276.127 311.965 273.315 310.018L258.841 324.487C257.892 325.441 256.646 325.913 255.401 325.913C254.154 325.913 252.909 325.441 251.96 324.487C250.057 322.589 250.057 319.504 251.96 317.606L264.876 304.695C254.617 298.874 247.39 296.991 246.83 296.854C245.18 296.446 243.433 296.937 242.226 298.139L232.536 307.829C230.317 309.99 228.108 311.971 225.913 313.883L229.431 317.406L259.941 341.258Z" fill="#818181"/>
<path d="M415.839 378.154C413.605 367.052 399.988 361.023 398.421 360.361C397.847 360.123 397.234 359.991 396.611 359.981C396.246 359.976 378.599 359.621 357.911 356.385C346.266 370.479 332.634 386.466 326.667 392.437C326.268 392.836 325.82 393.25 325.417 393.654C320.716 393.902 315.844 394.077 310.719 394.14C314.092 391.074 317.065 388.276 319.786 385.555C324.896 380.445 336.289 367.154 346.888 354.418C332.221 351.44 317.304 346.87 306.709 339.896L302.641 343.965C296.883 350.939 288.542 355.533 279.456 356.57C278.166 356.716 276.876 356.789 275.596 356.789C272.925 356.789 270.306 356.36 267.742 355.737C257.595 367.14 249.073 378.679 242.741 389.575C239.354 389.108 235.918 388.607 232.419 388.057C238.795 376.435 247.579 364.074 258.179 351.859C256.68 350.954 255.215 349.98 253.837 348.837L223.202 324.893C223.046 324.766 222.9 324.635 222.759 324.499L218.306 320.04C203.029 331.458 188.391 336.699 174.642 335.575C154.27 333.876 142.649 318.337 142.541 318.191C141.602 316.892 140.094 316.103 138.478 316.181C136.877 316.22 135.393 317.047 134.521 318.396C119.6 341.352 124.043 367.89 127.221 379.779C125.353 380.461 124 382.208 124 384.315V408.649C124 411.335 126.18 413.515 128.866 413.515H197C198.289 413.515 199.53 412.999 200.441 412.089L203.303 409.223C216.136 412.683 259.469 423.293 307.78 423.288C343.862 423.288 382.727 417.365 413.703 398.127C415.129 397.236 416.001 395.674 416.001 393.991V379.391C416 378.971 415.946 378.553 415.839 378.154ZM406.266 391.25C333.68 434.155 216.618 402.896 203.078 399.066C202.679 398.964 202.27 398.915 201.866 398.915C200.591 398.915 199.35 399.417 198.426 400.341L194.985 403.782H133.734V389.177L175.971 389.123C182.901 389.123 189.608 389.814 195.91 391.172C199.366 391.917 202.762 392.617 206.12 393.284C234.425 398.924 259.542 401.996 281.681 403.3C281.914 403.315 282.148 403.324 282.381 403.339C284.829 403.479 287.243 403.602 289.623 403.698C290.417 403.733 291.205 403.762 291.994 403.791C293.819 403.854 295.624 403.912 297.401 403.952C298.593 403.981 299.766 404 300.934 404.02C302.365 404.039 303.781 404.054 305.183 404.063C305.761 404.063 306.365 404.078 306.935 404.078C307.373 404.078 307.772 404.059 308.205 404.059C311.933 404.049 315.583 403.996 319.101 403.884C319.403 403.874 319.685 403.859 319.987 403.85C323.335 403.738 326.572 403.572 329.73 403.377C330.338 403.343 330.961 403.31 331.565 403.266C334.791 403.052 337.921 402.793 340.947 402.507C341.541 402.448 342.121 402.385 342.709 402.326C345.702 402.025 348.622 401.694 351.421 401.329C351.503 401.319 351.596 401.309 351.678 401.3C354.555 400.92 357.29 400.506 359.957 400.074C360.477 399.986 360.998 399.903 361.514 399.816C364.064 399.387 366.527 398.94 368.882 398.473C369.262 398.4 369.617 398.322 369.987 398.244C372.182 397.801 374.294 397.344 376.318 396.872C376.586 396.809 376.873 396.75 377.141 396.687C379.277 396.181 381.296 395.665 383.238 395.149C383.642 395.037 384.036 394.93 384.431 394.823C386.329 394.302 388.154 393.781 389.862 393.261C390.013 393.212 390.149 393.168 390.305 393.12C391.916 392.624 393.429 392.132 394.87 391.64C395.152 391.548 395.439 391.45 395.712 391.358C397.167 390.857 398.524 390.365 399.8 389.883C400.067 389.781 400.315 389.684 400.578 389.586C401.79 389.119 402.943 388.662 403.985 388.228C404.033 388.209 404.087 388.189 404.131 388.17C404.89 387.854 405.6 387.547 406.267 387.255V391.25H406.266Z" fill="#818181"/>
</g>
<defs>
<clipPath id="clip0">
<rect x="124" y="214" width="292" height="292" fill="white"/>
</clipPath>
</defs>
</svg>

