<svg width="540" height="720" viewBox="0 0 540 720" fill="none" xmlns="http://www.w3.org/2000/svg">
<rect width="540" height="720" fill="#F7F7F7"/>
<rect x="34.5" y="34.5" width="471" height="651" rx="13.5" stroke="#818181" stroke-width="5" stroke-linejoin="round" stroke-dasharray="16 16"/>
<path d="M267.205 456.315C251.774 456.351 236.569 452.602 222.922 445.399V467.273C222.928 473.194 227.728 477.994 233.649 478H306.022C311.943 477.994 316.741 473.194 316.75 467.273V445.389C303.102 452.596 287.897 456.346 272.466 456.313L267.205 456.315Z" fill="#818181"/>
<path d="M271.724 302.609H267.945C246.865 302.546 227.359 313.755 216.799 332C206.242 350.245 206.242 372.743 216.799 390.988C227.359 409.232 246.865 420.441 267.945 420.379H271.724C292.804 420.441 312.308 409.232 322.867 390.988C333.425 372.743 333.425 350.245 322.867 332C312.308 313.755 292.804 302.546 271.724 302.609V302.609ZM295.532 369.845H268.339C265.376 369.845 262.975 367.442 262.975 364.482V328.021C262.975 325.059 265.376 322.658 268.339 322.658C271.301 322.658 273.702 325.059 273.702 328.021V359.118H295.532C298.494 359.118 300.895 361.519 300.895 364.482C300.895 367.444 298.494 369.845 295.532 369.845Z" fill="#818181"/>
<path d="M272.462 266.673C287.893 266.637 303.097 270.385 316.745 277.589V252.727C316.739 246.806 311.941 242.006 306.018 242H233.647C227.724 242.006 222.926 246.806 222.919 252.727V277.597C236.565 270.39 251.772 266.639 267.205 266.673H272.462Z" fill="#818181"/>
<path d="M272.462 277.4H267.199C220.833 277.4 183.109 315.126 183.109 361.494C183.109 407.862 220.833 445.588 267.205 445.588H272.468C318.838 445.588 356.562 407.862 356.562 361.494C356.562 315.126 318.834 277.4 272.462 277.4V277.4ZM271.72 431.106H267.94C243.025 431.175 219.974 417.921 207.495 396.355C195.016 374.79 195.016 348.198 207.495 326.632C219.974 305.065 243.025 291.813 267.94 291.882H271.72C296.636 291.813 319.689 305.065 332.168 326.632C344.645 348.198 344.645 374.79 332.168 396.355C319.689 417.921 296.636 431.175 271.72 431.106Z" fill="#818181"/>
</svg>

