<svg width="540" height="720" viewBox="0 0 540 720" fill="none" xmlns="http://www.w3.org/2000/svg">
<rect width="540" height="720" fill="#F7F7F7"/>
<rect x="34.5" y="34.5" width="471" height="651" rx="13.5" stroke="#818181" stroke-width="5" stroke-linejoin="round" stroke-dasharray="16 16"/>
<path d="M325.527 282.57L325.562 278.223C325.594 274.154 325.426 270.09 325.073 266.043H310.603C312.588 273.673 318.225 279.843 325.527 282.57Z" fill="#818181"/>
<path d="M323.423 253.908C323.029 251.773 322.593 249.646 322.091 247.532L321.388 244.571C320.751 241.892 318.358 240 315.604 240H223.398C220.644 240 218.251 241.892 217.615 244.57L216.911 247.535C216.408 249.648 215.973 251.774 215.579 253.908H323.423Z" fill="#818181"/>
<path d="M298.211 266.044H275.569V287.955C275.569 291.307 272.853 294.023 269.501 294.023C266.149 294.023 263.433 291.307 263.433 287.955V266.044H240.776C238.354 280.346 227.53 291.822 213.573 295.201L214.995 475.103C215.021 478.367 217.675 481 220.939 481H252.594C255.745 481 258.349 478.54 258.528 475.394L267.938 310.473C267.985 309.649 268.667 309.005 269.492 309.005C270.318 309.005 271 309.649 271.047 310.473L280.457 475.394C280.636 478.54 283.24 481 286.392 481H318.046C321.31 481 323.964 478.367 323.99 475.103L325.426 295.204C311.462 291.828 300.633 280.351 298.211 266.044Z" fill="#818181"/>
<path d="M228.383 266.044H213.928C213.574 270.09 213.406 274.153 213.438 278.221L213.473 282.565C220.768 279.835 226.399 273.668 228.383 266.044Z" fill="#818181"/>
</svg>

