<svg width="540" height="720" viewBox="0 0 540 720" fill="none" xmlns="http://www.w3.org/2000/svg">
<rect width="540" height="720" fill="#F7F7F7"/>
<g clip-path="url(#clip0)">
<path d="M269.763 256.074C282.564 256.074 293.621 247.912 297.593 235.905C290.015 237.991 280.356 239.25 269.763 239.25C259.171 239.25 249.512 237.991 241.935 235.905C245.905 247.911 256.961 256.074 269.763 256.074Z" fill="#818181"/>
<path d="M417.158 270.839C416.55 269.133 415.285 267.73 413.637 266.966L357.294 240.956C345.309 236.896 333.099 233.689 320.77 231.345C320.336 231.26 319.904 231.219 319.478 231.219C316.426 231.219 313.693 233.326 313.013 236.416C308.511 256.236 290.966 271.075 269.762 271.075C248.559 271.075 231.013 256.237 226.512 236.416C225.824 233.326 223.096 231.219 220.046 231.219C219.62 231.219 219.188 231.26 218.754 231.345C206.426 233.689 194.216 236.896 182.212 240.956L125.889 266.965C124.231 267.729 122.957 269.132 122.378 270.838C121.779 272.564 121.887 274.427 122.731 276.055L147.191 324.327C148.336 326.618 150.665 327.993 153.129 327.993C153.765 327.993 154.41 327.901 155.046 327.71L182.213 319.658V481.628C182.213 485.306 185.214 488.306 188.902 488.306H350.625C354.303 488.306 357.295 485.305 357.295 481.628V319.66L384.481 327.712C385.117 327.903 385.761 327.995 386.396 327.995C388.855 327.995 391.175 326.62 392.336 324.329L416.805 276.057C417.629 274.428 417.747 272.565 417.158 270.839Z" fill="#818181"/>
</g>
<rect x="34.5" y="34.5" width="471" height="651" rx="13.5" stroke="#818181" stroke-width="5" stroke-linejoin="round" stroke-dasharray="16 16"/>
<defs>
<clipPath id="clip0">
<rect x="122" y="212" width="295.526" height="295.526" fill="white"/>
</clipPath>
</defs>
</svg>

